<?xml version="1.0" encoding="iso-8859-1"?>
<!-- Uploaded to: SVG Repo, www.svgrepo.com, Generator: SVG Repo Mixer Tools -->
<svg height="800px" width="800px" version="1.1" id="Layer_1" xmlns="http://www.w3.org/2000/svg" xmlns:xlink="http://www.w3.org/1999/xlink" 
	 viewBox="0 0 512 512" xml:space="preserve">
<g>
	<path style="fill:#805333;" d="M386.169,425.22V28.776c0-6.309-5.111-11.42-11.42-11.42H273.356h-26.034V43.39h-95.458V17.356
		h-34.712H15.759c-6.309,0-11.42,5.111-11.42,11.42v463.126c0,6.309,5.111,11.42,11.42,11.42h358.99
		c6.309,0,11.42-5.111,11.42-11.42v-51.495V425.22z"/>
	<polygon style="fill:#95A5A5;" points="151.864,43.39 247.322,43.39 247.322,0 151.864,0 	"/>
	<polygon style="fill:#BDC3C7;" points="247.322,17.356 247.322,43.39 151.864,43.39 151.864,17.356 108.475,17.356 108.475,69.424 
		290.712,69.424 290.712,17.356 	"/>
	<polygon style="fill:#F8EDCD;" points="290.712,60.746 290.712,69.424 108.475,69.424 108.475,60.746 47.729,60.746 
		47.729,459.932 342.78,459.932 342.78,60.746 	"/>
	<g>
		<path style="fill:#B5AA8D;" d="M91.119,190.915h34.712v-34.712H91.119V190.915z M134.508,208.271H82.441
			c-4.799,0-8.678-3.879-8.678-8.678v-52.068c0-4.799,3.879-8.678,8.678-8.678h52.068c4.799,0,8.678,3.879,8.678,8.678v52.068
			C143.186,204.392,139.307,208.271,134.508,208.271L134.508,208.271z"/>
		<path style="fill:#B5AA8D;" d="M264.678,190.915h34.712v-34.712h-34.712V190.915z M308.068,208.271H256
			c-4.799,0-8.678-3.879-8.678-8.678v-52.068c0-4.799,3.879-8.678,8.678-8.678h52.068c4.799,0,8.678,3.879,8.678,8.678v52.068
			C316.746,204.392,312.867,208.271,308.068,208.271L308.068,208.271z"/>
		<path style="fill:#B5AA8D;" d="M177.898,190.915h34.712v-34.712h-34.712V190.915z M221.288,208.271H169.22
			c-4.799,0-8.678-3.879-8.678-8.678v-52.068c0-4.799,3.879-8.678,8.678-8.678h52.068c4.799,0,8.678,3.879,8.678,8.678v52.068
			C229.966,204.392,226.087,208.271,221.288,208.271L221.288,208.271z"/>
		<path style="fill:#B5AA8D;" d="M177.898,373.153h34.712v-34.712h-34.712V373.153z M221.288,390.508H169.22
			c-4.799,0-8.678-3.879-8.678-8.678v-52.068c0-4.799,3.879-8.678,8.678-8.678h52.068c4.799,0,8.678,3.879,8.678,8.678v52.068
			C229.966,386.629,226.087,390.508,221.288,390.508L221.288,390.508z"/>
		<path style="fill:#B5AA8D;" d="M91.119,295.051h34.712v-34.712H91.119V295.051z M134.508,312.407H82.441
			c-4.799,0-8.678-3.879-8.678-8.678v-52.068c0-4.799,3.879-8.678,8.678-8.678h52.068c4.799,0,8.678,3.879,8.678,8.678v52.068
			C143.186,308.528,139.307,312.407,134.508,312.407L134.508,312.407z"/>
		<path style="fill:#B5AA8D;" d="M264.678,295.051h34.712v-34.712h-34.712V295.051z M308.068,312.407H256
			c-4.799,0-8.678-3.879-8.678-8.678v-52.068c0-4.799,3.879-8.678,8.678-8.678h52.068c4.799,0,8.678,3.879,8.678,8.678v52.068
			C316.746,308.528,312.867,312.407,308.068,312.407L308.068,312.407z"/>
		<path style="fill:#B5AA8D;" d="M169.22,182.237h-34.712c-4.799,0-8.678-3.879-8.678-8.678c0-4.799,3.879-8.678,8.678-8.678h34.712
			c4.799,0,8.678,3.879,8.678,8.678C177.898,178.358,174.019,182.237,169.22,182.237"/>
		<path style="fill:#B5AA8D;" d="M256,182.237h-34.712c-4.799,0-8.678-3.879-8.678-8.678c0-4.799,3.879-8.678,8.678-8.678H256
			c4.799,0,8.678,3.879,8.678,8.678C264.678,178.358,260.799,182.237,256,182.237"/>
		<path style="fill:#B5AA8D;" d="M108.475,260.339c-4.799,0-8.678-3.879-8.678-8.678v-52.068c0-4.799,3.879-8.678,8.678-8.678
			s8.678,3.879,8.678,8.678v52.068C117.153,256.46,113.273,260.339,108.475,260.339"/>
		<path style="fill:#B5AA8D;" d="M282.034,260.339c-4.799,0-8.678-3.879-8.678-8.678v-52.068c0-4.799,3.879-8.678,8.678-8.678
			s8.678,3.879,8.678,8.678v52.068C290.712,256.46,286.833,260.339,282.034,260.339"/>
		<path style="fill:#B5AA8D;" d="M169.22,364.475h-60.746c-4.799,0-8.678-3.879-8.678-8.678v-52.068
			c0-4.799,3.879-8.678,8.678-8.678s8.678,3.879,8.678,8.678v43.39h52.068c4.799,0,8.678,3.879,8.678,8.678
			C177.898,360.596,174.019,364.475,169.22,364.475"/>
		<path style="fill:#B5AA8D;" d="M282.034,364.475h-60.746c-4.799,0-8.678-3.879-8.678-8.678c0-4.799,3.879-8.678,8.678-8.678
			h52.068v-43.39c0-4.799,3.879-8.678,8.678-8.678s8.678,3.879,8.678,8.678v52.068C290.712,360.596,286.833,364.475,282.034,364.475
			"/>
	</g>
	<g>
		<path style="fill:#8697CB;" d="M420.89,78.102c-3.185,0-6.248-1.753-7.775-4.799c-2.143-4.287-0.399-9.494,3.888-11.646
			l34.712-17.356c4.287-2.135,9.494-0.399,11.646,3.888c2.143,4.287,0.399,9.494-3.888,11.646L424.76,77.191
			C423.519,77.807,422.192,78.102,420.89,78.102"/>
		<path style="fill:#8697CB;" d="M420.881,190.915c-4.799,0-8.678-3.879-8.678-8.678V69.424c0-4.799,3.879-8.678,8.678-8.678
			c4.799,0,8.678,3.879,8.678,8.678v112.814C429.559,187.036,425.68,190.915,420.881,190.915"/>
		<path style="fill:#8697CB;" d="M481.627,512c-4.799,0-8.678-3.879-8.678-8.678v-17.356c0-4.799,3.879-8.678,8.678-8.678
			c4.799,0,8.678,3.879,8.678,8.678v17.356C490.305,508.121,486.426,512,481.627,512"/>
	</g>
	<polygon style="fill:#556080;" points="455.593,433.898 507.661,433.898 507.661,43.39 455.593,43.39 	"/>
	<path style="fill:#8697CB;" d="M498.983,43.39h-34.712V13.017C464.271,5.832,470.103,0,477.288,0h8.687
		c7.185,0,13.008,5.832,13.008,13.017V43.39z"/>
	<polygon style="fill:#556080;" points="490.305,485.966 472.949,485.966 455.593,433.898 507.661,433.898 	"/>
	<polygon style="fill:#8697CB;" points="455.593,433.898 507.661,433.898 507.661,295.051 455.593,295.051 	"/>
	<g>
		<polygon style="fill:#BAC7E8;" points="455.593,338.441 507.661,338.441 507.661,321.085 455.593,321.085 		"/>
		<polygon style="fill:#BAC7E8;" points="455.593,373.153 507.661,373.153 507.661,355.797 455.593,355.797 		"/>
		<polygon style="fill:#BAC7E8;" points="455.593,407.864 507.661,407.864 507.661,390.508 455.593,390.508 		"/>
	</g>
</g>
</svg>